<svg xmlns="http://www.w3.org/2000/svg" width="16.031" height="16" viewBox="0 0 16.031 16">
  <metadata><?xpacket begin="﻿" id="W5M0MpCehiHzreSzNTczkc9d"?>
<x:xmpmeta xmlns:x="adobe:ns:meta/" x:xmptk="Adobe XMP Core 5.6-c138 79.159824, 2016/09/14-01:09:01        ">
   <rdf:RDF xmlns:rdf="http://www.w3.org/1999/02/22-rdf-syntax-ns#">
      <rdf:Description rdf:about=""/>
   </rdf:RDF>
</x:xmpmeta>
                                                                                                    
                                                                                                    
                                                                                                    
                                                                                                    
                                                                                                    
                                                                                                    
                                                                                                    
                                                                                                    
                                                                                                    
                                                                                                    
                                                                                                    
                                                                                                    
                                                                                                    
                                                                                                    
                                                                                                    
                                                                                                    
                                                                                                    
                                                                                                    
                                                                                                    
                                                                                                    
                           
<?xpacket end="w"?></metadata>
<defs>
    <style>
      .cls-1 {
        fill: #737373;
        fill-rule: evenodd;
      }
    </style>
  </defs>
  <path id="Forma_1" data-name="Forma 1" class="cls-1" d="M973.945,1279.8h8.139a0.57,0.57,0,0,0,0-1.14h-8.139A0.57,0.57,0,0,0,973.945,1279.8Zm0,2.74h8.139a0.57,0.57,0,0,0,0-1.14h-8.139A0.57,0.57,0,0,0,973.945,1282.54Zm-3.379,3.66h1.82v1.87a0.572,0.572,0,0,0,.318.51,0.565,0.565,0,0,0,.248.06,0.6,0.6,0,0,0,.345-0.11l3.035-2.31h9.132a0.561,0.561,0,0,0,.566-0.57v-10.08a0.561,0.561,0,0,0-.566-0.57h-14.9a0.561,0.561,0,0,0-.566.57v10.07A0.568,0.568,0,0,0,970.566,1286.2Zm0.565-10.07h13.754v8.94h-8.746a0.6,0.6,0,0,0-.345.11l-2.276,1.74v-1.28a0.562,0.562,0,0,0-.566-0.57h-1.821v-8.94Z" transform="translate(-970 -1273.815)"/>
</svg>
