<svg xmlns="http://www.w3.org/2000/svg" width="20" height="17" viewBox="0 0 20 17"><g><g><path fill="#737373" d="M4.217 5.275c0-.397.31-.707.705-.707h10.155c.396 0 .706.31.706.707 0 .396-.31.707-.706.707H4.922a.699.699 0 0 1-.705-.707zm0 3.414c0-.397.31-.708.705-.708h10.155c.396 0 .706.311.706.708 0 .396-.31.706-.706.706H4.922a.698.698 0 0 1-.705-.706zM0 13.258V.705C0 .31.31 0 .706 0h18.588c.396 0 .706.31.706.706v12.57a.7.7 0 0 1-.706.707H7.9l-3.787 2.879a.751.751 0 0 1-.43.139.68.68 0 0 1-.31-.07.71.71 0 0 1-.395-.638v-2.328H.706A.71.71 0 0 1 0 13.258zm1.411-.708h2.272c.396 0 .706.31.706.708v1.604l2.84-2.173a.75.75 0 0 1 .43-.139h10.912V1.413H1.411z"/></g></g></svg>