<svg xmlns="http://www.w3.org/2000/svg" width="10" height="11" viewBox="0 0 10 11">
  <metadata><?xpacket begin="﻿" id="W5M0MpCehiHzreSzNTczkc9d"?>
<x:xmpmeta xmlns:x="adobe:ns:meta/" x:xmptk="Adobe XMP Core 5.6-c138 79.159824, 2016/09/14-01:09:01        ">
   <rdf:RDF xmlns:rdf="http://www.w3.org/1999/02/22-rdf-syntax-ns#">
      <rdf:Description rdf:about=""/>
   </rdf:RDF>
</x:xmpmeta>
                                                                                                    
                                                                                                    
                                                                                                    
                                                                                                    
                                                                                                    
                                                                                                    
                                                                                                    
                                                                                                    
                                                                                                    
                                                                                                    
                                                                                                    
                                                                                                    
                                                                                                    
                                                                                                    
                                                                                                    
                                                                                                    
                                                                                                    
                                                                                                    
                                                                                                    
                                                                                                    
                           
<?xpacket end="w"?></metadata>
<defs>
    <style>
      .cls-1 {
        fill: #fff;
        fill-rule: evenodd;
      }
    </style>
  </defs>
  <path id="dislike" class="cls-1" d="M926.088,1626.92a0.882,0.882,0,0,1,.111,1.76l-3.2.39a5.618,5.618,0,0,1,.666,2.71,1.119,1.119,0,0,1-1.25,1.22,0.8,0.8,0,0,1-.462-0.69h0a4.894,4.894,0,0,0-.563-1.54c-0.418-.8-0.987-0.72-1.651-1.43a3.762,3.762,0,0,1-.428-0.59,0.144,0.144,0,0,1-.035-0.06c-0.014-.03-0.03-0.05-0.045-0.08s-0.05-.09-0.075-0.14a1.831,1.831,0,0,0-1.324-.36,0.747,0.747,0,0,1-.833-0.81v-3.73a0.666,0.666,0,0,1,.833-0.75h0.834a4.254,4.254,0,0,0,1.25-.41,11.045,11.045,0,0,1,3.483-.41h1.268a1.014,1.014,0,0,1,.7.29,0.525,0.525,0,0,1,.162.32c0,0.02.009,0.13,0.009,0.15a0.654,0.654,0,0,1-.451.72s0,0.01.011,0.01l0.543-.03a0.894,0.894,0,0,1,.958.9,0.871,0.871,0,0,1-.878.84l0.288-.02A0.871,0.871,0,1,1,926.088,1626.92Z" transform="translate(-917 -1622)"/>
</svg>
