<?xml version="1.0" encoding="iso-8859-1"?>
<!-- Generator: Adobe Illustrator 19.0.0, SVG Export Plug-In . SVG Version: 6.00 Build 0)  -->
<svg version="1.1" id="Capa_1" xmlns="http://www.w3.org/2000/svg" xmlns:xlink="http://www.w3.org/1999/xlink" x="0px" y="0px"
	 viewBox="0 0 489.9 489.9" style="enable-background:new 0 0 489.9 489.9;" xml:space="preserve" fill = "rgba(115, 115, 115, .85)">
<g>
	
	<path d="M469.1,345.25h-8.4c-10.2-103.2-92.3-185.3-195.5-195.5v-25.9c0-11.4-9.4-20.8-20.8-20.8s-20.8,9.4-20.8,20.8v25.7
		c-104.2,9.3-187.3,91.8-197.6,195.7h-5.2c-11.4,0-20.8,9.4-20.8,20.8s9.4,20.8,20.8,20.8h447.3c11.4,0,21.8-9.4,21.8-20.8
		C489.9,354.65,480.5,345.25,469.1,345.25z M244.4,188.15c90.8,0,166.3,69,176.7,157.1H67.8C78.6,256.75,153.9,188.15,244.4,188.15z
		"/>
</g>
<g>
</g>
<g>
</g>
<g>
</g>
<g>
</g>
<g>
</g>
<g>
</g>
<g>
</g>
<g>
</g>
<g>
</g>
<g>
</g>
<g>
</g>
<g>
</g>
<g>
</g>
<g>
</g>
<g>
</g>
</svg>
