<svg 
 xmlns="http://www.w3.org/2000/svg"
 xmlns:xlink="http://www.w3.org/1999/xlink"
 width="20px" height="17px">
<path fill-rule="evenodd"  fill="rgb(115, 115, 115)"
 d="M19.294,13.982 L7.900,13.982 L4.113,16.861 C3.993,16.947 3.838,17.000 3.683,17.000 C3.580,17.000 3.477,16.981 3.373,16.930 C3.132,16.809 2.978,16.568 2.978,16.292 L2.978,13.964 L0.706,13.964 C0.327,13.964 -0.000,13.654 -0.000,13.258 L-0.000,0.705 C-0.000,0.309 0.310,-0.001 0.706,-0.001 L19.294,-0.001 C19.690,-0.001 20.000,0.309 20.000,0.705 L20.000,13.275 C20.000,13.671 19.690,13.982 19.294,13.982 ZM18.571,1.413 L1.411,1.413 L1.411,12.550 L3.683,12.550 C4.079,12.550 4.389,12.861 4.389,13.258 L4.389,14.862 L7.229,12.689 C7.349,12.602 7.504,12.550 7.659,12.550 L18.571,12.550 L18.571,1.413 ZM4.217,8.689 C4.217,8.292 4.527,7.981 4.922,7.981 L15.077,7.981 C15.473,7.981 15.783,8.292 15.783,8.689 C15.783,9.085 15.473,9.395 15.077,9.395 L4.922,9.395 C4.527,9.395 4.217,9.085 4.217,8.689 ZM15.077,5.982 L4.922,5.982 C4.527,5.982 4.217,5.671 4.217,5.275 C4.217,4.878 4.527,4.568 4.922,4.568 L15.077,4.568 C15.473,4.568 15.783,4.878 15.783,5.275 C15.783,5.671 15.473,5.982 15.077,5.982 Z"/>
</svg>