<svg width="919" height="896" viewBox="0 0 919 896" xmlns="http://www.w3.org/2000/svg" xmlns:xlink="http://www.w3.org/1999/xlink">
<svg 
 xmlns="http://www.w3.org/2000/svg"
 xmlns:xlink="http://www.w3.org/1999/xlink"
 width="19px" height="16px">
<path fill-rule="evenodd"  fill="rgb(115, 115, 115)"
 d="M16.537,1.486 C15.592,0.527 14.335,-0.001 12.999,-0.001 C11.662,-0.001 10.405,0.527 9.460,1.486 L8.994,1.959 L8.529,1.486 C7.584,0.527 6.327,-0.001 4.990,-0.001 C3.654,-0.001 2.397,0.527 1.452,1.486 C-0.499,3.468 -0.499,6.691 1.452,8.671 L8.443,15.770 C8.558,15.885 8.700,15.956 8.849,15.984 C8.898,15.994 8.949,16.000 8.999,16.000 C9.197,16.000 9.395,15.922 9.545,15.770 L16.537,8.671 C18.488,6.691 18.488,3.468 16.537,1.486 ZM15.444,7.561 L8.994,14.109 L2.545,7.561 C1.197,6.192 1.197,3.966 2.545,2.596 C3.198,1.933 4.067,1.569 4.990,1.569 C5.914,1.569 6.782,1.933 7.435,2.596 L8.448,3.625 C8.738,3.919 9.251,3.919 9.541,3.625 L10.553,2.596 C11.206,1.933 12.075,1.569 12.999,1.569 C13.922,1.569 14.791,1.933 15.444,2.596 C16.792,3.966 16.792,6.192 15.444,7.561 Z"/>
</svg>
</svg>