<svg xmlns="http://www.w3.org/2000/svg" xmlns:xlink="http://www.w3.org/1999/xlink" width="600" height="400" viewBox="0 0 600 400">

<svg xmlns="http://www.w3.org/2000/svg" width="12" height="12" viewBox="-1 -1 23 23" fill="none" id="filter-delete" x="0" y="0">
<path fill="#000" fill-opacity="0" d="M.7.7h20.237v20.238H.7z"/>
<path d="M13.128 10.819l7.33 7.33a1.631 1.631 0 0 1-1.154 2.788c-.431 0-.846-.168-1.155-.478l-7.33-7.33-7.33 7.33a1.63 1.63 0 0 1-1.156.478 1.634 1.634 0 0 1-1.155-2.788l7.33-7.33-7.33-7.33a1.634 1.634 0 0 1 2.31-2.31l7.33 7.33 7.331-7.33a1.634 1.634 0 0 1 2.31 2.31l-7.331 7.33z" fill="rgb(107, 205, 91)"/>
</svg>
<svg xmlns="http://www.w3.org/2000/svg" xmlns:xlink="http://www.w3.org/1999/xlink" width="19px"
                height="18px" id="ico-refresh" x="20" y="0">
                <path fill-rule="evenodd" opacity="0.702" fill="rgb(47, 47, 47)"
                  d="M18.964,13.078 C18.839,12.690 18.423,12.479 18.036,12.604 L17.079,12.916 C17.665,11.701 17.973,10.364 17.973,9.000 C17.973,4.037 13.941,-0.000 8.986,-0.000 C4.031,-0.000 -0.000,4.037 -0.000,9.000 C-0.000,13.963 4.031,18.000 8.986,18.000 C9.393,18.000 9.723,17.669 9.723,17.262 C9.723,16.855 9.393,16.524 8.986,16.524 C4.844,16.524 1.473,13.149 1.473,9.000 C1.473,4.851 4.844,1.475 8.986,1.475 C13.129,1.475 16.499,4.851 16.499,9.000 C16.499,10.143 16.242,11.262 15.750,12.279 L15.423,11.270 C15.297,10.883 14.881,10.671 14.494,10.797 C14.108,10.923 13.896,11.339 14.021,11.726 L14.890,14.404 C14.991,14.716 15.280,14.914 15.590,14.914 C15.666,14.914 15.743,14.902 15.818,14.877 L18.492,14.008 C18.878,13.882 19.090,13.465 18.964,13.078 Z" />
              </svg>
</svg>